<?xml version="1.0" encoding="utf-8"?>
<!-- Generator: Adobe Illustrator 24.1.1, SVG Export Plug-In . SVG Version: 6.00 Build 0)  -->
<svg version="1.1" id="Layer_1" xmlns="http://www.w3.org/2000/svg" xmlns:xlink="http://www.w3.org/1999/xlink" x="0px" y="0px"
	 viewBox="0 0 640 640" style="enable-background:new 0 0 640 640;" xml:space="preserve">
<style type="text/css">
	.st0{fill:#004F71;}
	.st1{fill:#FBB81C;}
</style>
<path class="st0" d="M0,0h640v640H0V0z"/>
<path class="st1" d="M359.7,609.3c43.2,0,78.2-35,78.2-78.2V371.6c0-43.2-35-78.2-78.2-78.2h-71.9c-17.2,0-31.3-14-31.3-31.3V108.9
	c0-13.8,11.2-25,25-25h78.2c13.8,0,25,11.2,25,25v46.9c0,55.3,44.8,100.1,100.1,100.1h46.9c13.8,0,25,11.2,25,25v78.2
	c0,13.8-11.2,25-25,25h-41.3l-1.8,53.1h43.1c43.2,0,78.2-35,78.2-78.2v-78.2c0-43.2-35-78.2-78.2-78.2h-46.9
	c-25.9,0-46.9-21-46.9-46.9v-46.9c0-43.2-35-78.2-78.2-78.2h-78.2c-43.2,0-78.2,35-78.2,78.2v159.5c0,43.2,35,78.2,78.2,78.2h71.9
	c17.2,0,31.3,14,31.3,31.3V531c0,13.8-11.2,25-25,25h-78.2c-13.8,0-25-11.2-25-25v-46.9c0-55.3-44.8-100.1-100.1-100.1h-46.9
	c-13.8,0-25-11.2-25-25v-78.2c0-13.8,11.2-25,25-25h40.6v-53.1h-40.6c-43.2,0-78.2,35-78.2,78.2v78.2c0,43.2,35,78.2,78.2,78.2h46.9
	c25.9,0,46.9,21,46.9,46.9v46.9c0,43.2,35,78.2,78.2,78.2H359.7z"/>
</svg>
